<svg width="128" height="128" viewBox="0 0 128 128" fill="none" xmlns="http://www.w3.org/2000/svg">
<path d="M64 124.347C93.84 124.347 118.642 99.5977 118.642 69.7051C118.642 51.7051 109.536 35.5269 95.7668 25.5086C93.4125 23.6869 90.464 24.2766 89.1245 26.4731C87.7851 28.7223 88.4822 31.2411 90.6239 32.9029C102.037 41.0446 109.481 54.4914 109.536 69.7051C109.589 94.9943 89.2319 115.241 64 115.241C38.7131 115.241 18.5165 94.9897 18.5165 69.7051C18.5165 48.0091 33.4102 29.9566 53.6617 25.3486V33.0629C53.6617 36.8663 56.2857 37.8857 59.1771 35.7943L76.3199 23.7943C78.7314 22.1349 78.7862 19.5634 76.3199 17.7943L59.2319 5.79428C56.2834 3.65257 53.6617 4.66971 53.6617 8.528V16.08C28.5874 20.9554 9.35767 43.3486 9.35767 69.7051C9.35767 99.5977 34.1074 124.347 64 124.347ZM36.3565 50.0457C36.0891 52.5623 35.8765 55.0286 35.8765 57.4377C35.8765 75.7051 47.9817 89.8491 63.6251 89.8491C70.4822 89.8491 76.8571 86.9006 79.6434 82.0274C82.1074 85.2411 83.3394 89.0971 85.3211 95.0971C85.5359 95.6343 86.0708 95.8491 86.5554 95.5794L88.4297 94.6697C89.8217 94.08 90.3039 93.3303 90.3039 91.8834C90.3039 87.8651 85.2137 81.9177 82.5897 79.5086C71.6068 69.2777 54.6788 75.2229 50.4982 63.9726C50.3931 63.76 50.3382 63.6526 50.3382 63.4926C50.3382 63.0629 50.7131 62.7406 51.0354 62.7406C51.4102 62.7406 51.6777 62.9554 51.9474 63.2229C60.3588 71.6869 72.0891 64.5097 82.7497 74.5806C83.4994 75.2777 84.624 74.9554 84.6788 74.0457C84.7314 73.1863 84.8388 72.1166 84.8388 70.992C84.8388 58.7223 76.1599 53.4743 63.6777 53.4743C59.8217 53.4743 55.8559 53.9543 52.1074 53.9543C46.8571 53.9543 42.1417 52.992 38.9279 49.456C38.0708 48.544 36.464 48.7589 36.3565 50.0457Z" fill="#4D8B67"/>
</svg>
