<svg width="29" height="29" viewBox="0 0 29 29" fill="none" xmlns="http://www.w3.org/2000/svg">
<path d="M14.5 28.1725C21.2606 28.1725 26.8799 22.5651 26.8799 15.7926C26.8799 11.7144 24.8168 8.04905 21.6972 5.77928C21.1638 5.36655 20.4958 5.50015 20.1923 5.99781C19.8888 6.50739 20.0468 7.07806 20.532 7.45455C23.1177 9.29915 24.8043 12.3457 24.8168 15.7926C24.8287 21.5221 20.2166 26.1093 14.5 26.1093C8.77096 26.1093 4.19517 21.5211 4.19517 15.7926C4.19517 10.8771 7.56953 6.78703 12.1577 5.74303V7.4908C12.1577 8.35251 12.7522 8.58348 13.4073 8.10964L17.2913 5.39089C17.8376 5.01492 17.85 4.43233 17.2913 4.03151L13.4198 1.31276C12.7517 0.827529 12.1577 1.05798 12.1577 1.93212V3.64312C6.47685 4.74771 2.12012 9.82115 2.12012 15.7926C2.12012 22.5651 7.72747 28.1725 14.5 28.1725ZM8.23705 11.3385C8.17646 11.9086 8.1283 12.4674 8.1283 13.0132C8.1283 17.1519 10.8709 20.3564 14.4151 20.3564C15.9687 20.3564 17.413 19.6884 18.0442 18.5843C18.6025 19.3124 18.8816 20.1861 19.3306 21.5454C19.3793 21.6671 19.5004 21.7158 19.6102 21.6547L20.0349 21.4486C20.3502 21.315 20.4595 21.1451 20.4595 20.8173C20.4595 19.9069 19.3062 18.5595 18.7117 18.0137C16.2234 15.6957 12.3882 17.0427 11.441 14.4938C11.4172 14.4456 11.4048 14.4213 11.4048 14.385C11.4048 14.2877 11.4897 14.2147 11.5627 14.2147C11.6477 14.2147 11.7082 14.2633 11.7693 14.3239C13.6751 16.2415 16.3327 14.6155 18.748 16.8972C18.9179 17.0551 19.1726 16.9821 19.1851 16.776C19.197 16.5813 19.2213 16.3389 19.2213 16.0841C19.2213 13.3043 17.255 12.1153 14.427 12.1153C13.5534 12.1153 12.6549 12.224 11.8056 12.224C10.6161 12.224 9.54774 12.006 8.81963 11.2049C8.62544 10.9982 8.26138 11.0469 8.23705 11.3385Z" fill="#4D8B67"/>
</svg>
